##     ## ##    ## ####  #######  ##     ## ######## 
##     ## ###   ##  ##  ##     ## ##     ## ##       
##     ## ####  ##  ##  ##     ## ##     ## ##       
##     ## ## ## ##  ##  ##     ## ##     ## ######   
##     ## ##  ####  ##  ##  ## ## ##     ## ##       
##     ## ##   ###  ##  ##    ##  ##     ## ##       
 #######  ##    ## ####  ##### ##  #######  ######## 


General
Complete name : The Amazing Spiderman 2012 HDCAM x264 AAC-UNiQUE.mp4
Format : MPEG-4
Format profile : Base Media
Codec ID : isom
File size : 700 MiB
Duration : 1h 59mn
Overall bit rate mode : Variable
Overall bit rate : 816 Kbps
Encoded date : UTC 2012-07-08 20:52:35

Video
ID : 1
Format : AVC
Format/Info : Advanced Video Codec
Format profile : High@L4.1
Format settings, CABAC : Yes
Format settings, ReFrames : 3 frames
Codec ID : avc1
Codec ID/Info : Advanced Video Coding
Duration : 1h 59mn
Bit rate mode : Variable
Bit rate : 733 Kbps
Maximum bit rate : 40.0 Mbps
Width : 720 pixels
Height : 288 pixels
Display aspect ratio : 2.500
Frame rate mode : Constant
Frame rate : 25.000 fps
Color space : YUV
Chroma subsampling : 4:2:0
Bit depth : 8 bits
Scan type : Progressive
Bits/(Pixel*Frame) : 0.141
Stream size : 628 MiB (90%)
Writing library : x264 core 125 r2200 999b753

Audio
ID : 2
Format : AAC
Format/Info : Advanced Audio Codec
Format profile : LC
Codec ID : 40
Duration : 1h 59mn
Bit rate mode : Variable
Bit rate : 80.0 Kbps
Maximum bit rate : 118 Kbps
Channel(s) : 2 channels
Channel positions : Front: L R
Sampling rate : 44.1 KHz
Compression mode : Lossy
Stream size : 68.5 MiB (10%)
Language : English
Encoded date : UTC 2012-07-08 20:53:03

Source : HDCAM 26K - Thanks!

Storyline
Peter Parker finds a clue that might help him understand why his parents disappeared when he was young. His path puts him on a collision course with Dr. Curt Connors, his father's former partner.

iMDB: http://www.imdb.com/title/tt0948470


##     ## ##    ## ####  #######  ##     ## ######## 
##     ## ###   ##  ##  ##     ## ##     ## ##       
##     ## ####  ##  ##  ##     ## ##     ## ##       
##     ## ## ## ##  ##  ##     ## ##     ## ######   
##     ## ##  ####  ##  ##  ## ## ##     ## ##       
##     ## ##   ###  ##  ##    ##  ##     ## ##       
 #######  ##    ## ####  ##### ##  #######  ######## 